<?xml version="1.0" encoding="UTF-8" standalone="no"?>
<svg
   width="361.199mm"
   height="361.199mm"
   viewBox="0 0 1024 1024"
   version="1.1"
   id="svg1"
   sodipodi:docname="eca.svg"
   inkscape:version="1.4.2 (ebf0e940d0, 2025-05-08)"
   xmlns:inkscape="http://www.inkscape.org/namespaces/inkscape"
   xmlns:sodipodi="http://sodipodi.sourceforge.net/DTD/sodipodi-0.dtd"
   xmlns="http://www.w3.org/2000/svg"
   xmlns:svg="http://www.w3.org/2000/svg">
  <defs
     id="defs1" />
  <sodipodi:namedview
     id="namedview1"
     pagecolor="#ffffff"
     bordercolor="#000000"
     borderopacity="0.25"
     inkscape:showpageshadow="2"
     inkscape:pageopacity="0.0"
     inkscape:pagecheckerboard="0"
     inkscape:deskcolor="#d1d1d1"
     inkscape:document-units="mm"
     showgrid="false"
     inkscape:zoom="0.52154998"
     inkscape:cx="682.5808"
     inkscape:cy="682.5808"
     inkscape:window-width="1594"
     inkscape:window-height="962"
     inkscape:window-x="0"
     inkscape:window-y="0"
     inkscape:window-maximized="1"
     inkscape:current-layer="svg1" />
  <path
     id="Selection"
     fill="none"
     stroke="black"
     stroke-width="1"
     d="M 511.00,130.55            C 521.11,128.82 527.65,134.37 536.00,139.15              536.00,139.15 582.00,166.55 582.00,166.55              582.00,166.55 658.00,211.40 658.00,211.40              664.54,215.28 679.19,222.25 681.99,229.01              683.16,231.82 683.00,235.02 683.00,238.00              683.00,238.00 683.00,360.00 683.00,360.00              683.00,362.31 682.78,365.63 684.02,367.62              685.34,369.73 689.79,372.07 692.00,373.40              692.00,373.40 708.00,383.06 708.00,383.06              708.00,383.06 771.00,420.99 771.00,420.99              775.88,423.86 789.12,430.63 791.55,435.09              793.20,438.12 792.99,441.67 793.00,445.00              793.00,445.00 793.00,505.00 793.00,505.00              793.00,507.43 792.80,510.67 794.02,512.82              795.63,515.63 801.13,518.50 804.00,520.15              804.00,520.15 823.00,531.60 823.00,531.60              823.00,531.60 900.00,577.28 900.00,577.28              906.68,581.11 921.49,588.46 924.69,595.00              926.18,598.06 925.99,601.68 926.00,605.00              926.00,605.00 926.00,761.00 926.00,761.00              925.99,764.30 926.18,767.96 924.69,771.00              921.48,777.51 903.88,786.67 897.00,790.80              897.00,790.80 810.00,842.86 810.00,842.86              810.00,842.86 790.00,854.81 790.00,854.81              785.14,857.80 779.97,861.15 774.00,860.79              766.67,860.34 753.94,851.14 747.00,847.15              747.00,847.15 683.00,808.81 683.00,808.81              683.00,808.81 662.00,796.55 662.00,796.55              659.50,795.06 655.94,792.12 653.00,792.32              650.72,792.48 645.24,796.00 643.00,797.28              643.00,797.28 619.00,811.94 619.00,811.94              619.00,811.94 550.00,853.00 550.00,853.00              550.00,853.00 529.00,865.28 529.00,865.28              525.44,867.30 521.10,870.11 517.00,870.63              512.03,871.26 508.14,868.57 504.00,866.30              504.00,866.30 482.00,853.20 482.00,853.20              482.00,853.20 408.00,809.00 408.00,809.00              408.00,809.00 388.00,796.94 388.00,796.94              385.69,795.50 381.62,792.35 379.00,792.19              376.27,792.03 372.33,794.80 370.00,796.20              370.00,796.20 350.00,808.19 350.00,808.19              350.00,808.19 287.00,845.68 287.00,845.68              279.68,850.24 264.14,860.92 256.00,860.92              250.54,860.92 246.56,858.34 242.00,855.72              242.00,855.72 219.00,841.68 219.00,841.68              219.00,841.68 136.00,791.00 136.00,791.00              128.55,786.10 110.72,777.63 107.23,769.99              105.82,766.91 106.01,764.27 106.00,761.00              106.00,761.00 106.00,605.00 106.00,605.00              106.00,602.57 105.87,599.26 106.74,597.00              109.40,590.11 123.65,583.26 130.00,579.32              130.00,579.32 208.00,532.72 208.00,532.72              208.00,532.72 229.00,520.01 229.00,520.01              231.60,518.48 236.46,516.18 237.98,513.67              239.22,511.63 239.00,508.35 239.00,506.00              239.00,506.00 239.00,445.00 239.00,445.00              239.00,442.50 238.89,439.38 239.65,437.00              241.85,430.08 253.89,424.80 260.00,421.06              260.00,421.06 304.00,394.45 304.00,394.45              304.00,394.45 324.00,382.66 324.00,382.66              328.79,379.54 344.89,370.75 346.98,366.91              348.20,364.67 348.00,361.50 348.00,359.00              348.00,359.00 348.00,236.00 348.00,236.00              348.16,224.54 353.40,223.62 362.00,218.14              362.00,218.14 385.00,204.28 385.00,204.28              385.00,204.28 467.00,155.40 467.00,155.40              467.00,155.40 511.00,130.55 511.00,130.55 Z            M 631.00,237.00            C 631.00,237.00 600.00,218.45 600.00,218.45              600.00,218.45 550.00,188.96 550.00,188.96              550.00,188.96 528.00,176.32 528.00,176.32              528.00,176.32 516.00,170.15 516.00,170.15              516.00,170.15 506.00,174.85 506.00,174.85              506.00,174.85 482.00,188.94 482.00,188.94              482.00,188.94 402.00,236.00 402.00,236.00              402.00,236.00 402.00,238.00 402.00,238.00              402.00,238.00 462.00,273.55 462.00,273.55              462.00,273.55 477.00,282.06 477.00,282.06              477.00,282.06 503.00,297.28 503.00,297.28              506.16,299.10 511.65,303.05 515.00,303.56              518.61,304.10 521.98,301.87 525.00,300.15              525.00,300.15 545.00,288.40 545.00,288.40              545.00,288.40 603.00,254.42 603.00,254.42              610.03,250.34 625.94,242.16 631.00,237.00 Z            M 383.00,267.00            C 381.51,270.76 382.00,275.00 382.00,279.00              382.00,279.00 382.00,301.00 382.00,301.00              382.00,301.00 382.00,377.00 382.00,377.00              382.00,379.43 382.13,382.74 381.26,385.00              379.06,390.69 366.48,397.26 361.00,400.55              361.00,400.55 298.00,438.80 298.00,438.80              298.00,438.80 280.00,449.68 280.00,449.68              278.31,450.73 274.01,453.16 272.99,454.63              271.74,456.44 272.00,459.85 272.00,462.00              272.00,462.00 272.00,514.00 272.00,514.00              277.91,515.88 300.12,529.70 307.00,533.80              307.00,533.80 354.00,561.45 354.00,561.45              354.00,561.45 378.00,575.70 378.00,575.70              384.74,579.43 402.44,588.98 405.91,595.00              408.14,598.87 407.99,602.72 408.00,607.00              408.00,607.00 408.00,710.00 408.00,710.00              408.00,710.00 408.00,755.00 408.00,755.00              407.99,762.89 407.64,761.72 406.00,769.00              406.00,769.00 486.00,816.42 486.00,816.42              486.00,816.42 506.00,828.20 506.00,828.20              508.87,829.93 512.56,832.75 516.00,832.66              520.15,832.55 530.87,825.23 535.00,822.85              535.00,822.85 581.00,795.45 581.00,795.45              581.00,795.45 614.00,775.80 614.00,775.80              616.57,774.26 624.80,770.24 625.71,767.79              626.53,765.56 624.74,763.25 624.07,760.00              624.07,760.00 624.07,754.00 624.07,754.00              624.07,754.00 624.07,606.00 624.07,606.00              624.00,603.02 623.84,599.82 625.01,597.01              627.88,590.08 641.56,583.86 648.00,579.94              648.00,579.94 685.00,558.08 685.00,558.08              685.00,558.08 727.00,532.85 727.00,532.85              727.00,532.85 749.00,519.60 749.00,519.60              755.67,515.65 758.87,515.69 759.00,508.00              759.00,508.00 759.00,462.00 759.00,462.00              759.00,459.81 759.25,456.41 758.01,454.55              756.83,452.79 752.91,450.83 751.00,449.63              751.00,449.63 736.00,440.50 736.00,440.50              736.00,440.50 698.00,417.55 698.00,417.55              698.00,417.55 673.00,402.14 673.00,402.14              668.81,399.69 654.12,391.41 652.17,387.90              650.79,385.39 651.00,381.80 651.00,379.00              651.00,379.00 651.00,267.00 651.00,267.00              642.95,269.96 621.62,283.44 613.00,288.55              613.00,288.55 559.00,320.05 559.00,320.05              559.00,320.05 533.00,335.20 533.00,335.20              529.15,337.49 521.30,342.34 517.00,342.75              512.26,343.20 507.00,339.68 503.00,337.42              503.00,337.42 478.00,322.80 478.00,322.80              478.00,322.80 419.00,287.99 419.00,287.99              419.00,287.99 383.00,267.00 383.00,267.00 Z            M 545.00,489.00            C 545.00,489.00 495.00,468.66 495.00,468.66              495.00,468.66 466.00,456.99 466.00,456.99              466.00,456.99 448.00,449.77 448.00,449.77              445.94,448.82 442.60,447.71 441.57,445.59              440.64,443.65 441.00,431.93 441.00,429.00              441.00,426.21 439.59,417.78 442.44,416.68              444.61,415.84 449.82,418.35 452.00,419.19              452.00,419.19 474.00,427.77 474.00,427.77              474.00,427.77 504.00,439.45 504.00,439.45              504.00,439.45 555.00,459.95 555.00,459.95              555.00,459.95 576.00,468.55 576.00,468.55              583.44,471.55 588.82,470.75 589.00,480.00              589.00,480.00 589.00,495.00 589.00,495.00              589.00,497.27 589.22,500.66 587.98,502.61              586.56,504.84 582.40,506.55 580.00,507.57              580.00,507.57 562.00,515.06 562.00,515.06              562.00,515.06 531.00,528.57 531.00,528.57              531.00,528.57 479.00,550.70 479.00,550.70              479.00,550.70 453.00,561.77 453.00,561.77              450.57,562.88 444.89,565.80 442.31,564.65              439.41,563.37 439.97,557.65 440.00,555.00              440.00,555.00 440.99,544.00 440.99,544.00              440.65,541.06 439.50,538.04 440.99,535.27              442.90,532.43 452.52,529.20 456.00,527.63              456.00,527.63 496.00,510.04 496.00,510.04              496.00,510.04 545.00,489.00 545.00,489.00 Z            M 359.00,604.00            C 359.00,604.00 334.00,588.99 334.00,588.99              334.00,588.99 287.00,561.04 287.00,561.04              287.00,561.04 267.00,549.01 267.00,549.01              267.00,549.01 257.00,544.54 257.00,544.54              257.00,544.54 247.00,549.20 247.00,549.20              247.00,549.20 228.00,560.58 228.00,560.58              228.00,560.58 179.00,589.60 179.00,589.60              179.00,589.60 155.00,604.00 155.00,604.00              159.69,609.49 172.31,615.26 179.00,619.42              179.00,619.42 232.00,651.40 232.00,651.40              232.00,651.40 249.00,661.45 249.00,661.45              251.66,663.04 254.73,665.60 258.00,665.08              260.25,664.73 266.62,660.64 269.00,659.28              269.00,659.28 292.00,645.68 292.00,645.68              292.00,645.68 359.00,606.00 359.00,606.00              359.00,606.00 359.00,604.00 359.00,604.00 Z            M 877.00,603.00            C 877.00,603.00 845.00,584.68 845.00,584.68              845.00,584.68 804.00,560.20 804.00,560.20              804.00,560.20 785.00,548.86 785.00,548.86              785.00,548.86 776.00,544.71 776.00,544.71              776.00,544.71 767.00,548.01 767.00,548.01              767.00,548.01 749.00,558.72 749.00,558.72              749.00,558.72 696.00,589.94 696.00,589.94              696.00,589.94 672.00,605.00 672.00,605.00              672.00,605.00 747.00,649.14 747.00,649.14              747.00,649.14 767.00,660.86 767.00,660.86              769.62,662.32 772.90,664.65 776.00,664.37              779.40,664.07 790.40,656.92 794.00,654.85              794.00,654.85 837.00,629.01 837.00,629.01              837.00,629.01 864.00,612.80 864.00,612.80              868.55,610.07 874.22,607.67 877.00,603.00 Z            M 240.00,815.00            C 240.00,815.00 240.00,704.00 240.00,704.00              240.00,704.00 238.98,696.21 238.98,696.21              238.98,696.21 218.00,682.05 218.00,682.05              218.00,682.05 164.00,649.00 164.00,649.00              164.00,649.00 138.00,634.00 138.00,634.00              138.00,634.00 138.00,745.00 138.00,745.00              138.00,747.37 137.78,750.61 139.02,752.68              141.16,756.24 156.59,764.70 161.00,767.42              161.00,767.42 213.00,799.00 213.00,799.00              213.00,799.00 240.00,815.00 240.00,815.00 Z            M 657.00,634.00            C 657.00,634.00 656.00,647.00 656.00,647.00              656.00,647.00 656.00,669.00 656.00,669.00              656.00,669.00 656.00,746.00 656.00,746.00              656.00,746.00 656.99,753.37 656.99,753.37              656.99,753.37 663.00,757.68 663.00,757.68              663.00,757.68 679.00,767.42 679.00,767.42              679.00,767.42 729.00,797.20 729.00,797.20              729.00,797.20 759.00,814.00 759.00,814.00              759.00,814.00 759.00,703.00 759.00,703.00              759.00,703.00 757.98,695.39 757.98,695.39              757.98,695.39 751.00,690.32 751.00,690.32              751.00,690.32 736.00,681.31 736.00,681.31              736.00,681.31 713.00,667.55 713.00,667.55              713.00,667.55 657.00,634.00 657.00,634.00 Z            M 894.00,634.00            C 894.00,634.00 870.00,647.72 870.00,647.72              870.00,647.72 815.00,681.19 815.00,681.19              815.00,681.19 793.17,695.38 793.17,695.38              793.17,695.38 792.00,704.00 792.00,704.00              792.00,704.00 792.00,777.00 792.00,777.00              792.00,777.00 793.00,813.00 793.00,813.00              793.00,813.00 871.00,767.14 871.00,767.14              875.18,764.69 891.06,756.08 892.98,752.79              894.21,750.69 894.00,747.39 894.00,745.00              894.00,745.00 894.00,634.00 894.00,634.00 Z            M 376.00,636.00            C 368.93,637.44 357.71,645.68 351.00,649.58              351.00,649.58 294.00,683.58 294.00,683.58              289.72,686.06 275.03,693.67 273.02,697.18              271.80,699.33 272.00,702.57 272.00,705.00              272.00,705.00 272.00,815.00 272.00,815.00              278.47,812.61 289.46,805.22 296.00,801.42              296.00,801.42 346.00,771.86 346.00,771.86              346.00,771.86 365.00,760.72 365.00,760.72              367.50,759.28 373.29,756.02 375.15,753.71              376.85,750.43 375.43,737.34 375.15,733.00              375.15,733.00 375.15,712.00 375.15,712.00              375.15,712.00 375.15,703.00 375.15,703.00              375.15,703.00 375.15,693.00 375.15,693.00              375.15,693.00 375.15,668.00 375.15,668.00              375.00,660.73 374.57,642.10 376.00,636.00 Z"
     style="fill:#000000;fill-opacity:1" />
</svg>
